
<svg width="100" height="100" viewBox="0 0 48 48" xmlns="http://www.w3.org/2000/svg">
  <rect x="16.01" y="24" width="8" height="2" fill="black"/>
  <path d="M17.01,30c-.55,0-1-.45-1-1s.45-1,1-1,1,.45,1,1-.45,1-1,1ZM17.01,29h0s.5,0,.5,0h-.5Z" fill="black"/>
  <path d="M24.01,43.9l-13.29-6.64c-.28-.14-2.69-1.48-2.69-6.25v-14c0-4.77,2.42-6.11,
           2.7-6.25l13.29-6.64,13.29,6.64c.28.14,2.69,1.48,2.69,6.25v14c0,4.77-2.42,
           6.11-2.7,6.25l-13.29,6.64ZM24.01,6.35l-12.39,6.2s-1.59.93-1.59,4.46v14c0,
           3.52,1.54,4.43,1.61,4.47l12.37,6.19,12.39-6.2s1.59-.93,1.59-4.46v-14c0,
           -3.52-1.54-4.43-1.61-4.47l-12.37-6.19Z" fill="black"/>
</svg>
